<svg id="Icon_-_play" data-name="Icon - play" xmlns="http://www.w3.org/2000/svg" width="74" height="74" viewBox="0 0 74 74">
  <path id="Path_73" data-name="Path 73" d="M51.061,32.714l-27.133-18.5A1.233,1.233,0,0,0,22,15.233v37a1.233,1.233,0,0,0,1.928,1.019l27.133-18.5a1.232,1.232,0,0,0,0-2.037ZM24.467,49.9V17.568L48.177,33.733Z" transform="translate(5.133 3.267)" fill="#fff"/>
  <path id="Path_74" data-name="Path 74" d="M37,0A37,37,0,1,0,74,37,37.042,37.042,0,0,0,37,0Zm0,71.533A34.533,34.533,0,1,1,71.533,37,34.573,34.573,0,0,1,37,71.533Z" fill="#fff"/>
</svg>
